<svg width="55" height="13" viewBox="0 0 55 13" fill="none" xmlns="http://www.w3.org/2000/svg">
<path d="M13.2762 4.53553V8.67278H9.13841V12.8116H4.9991C4.9991 10.5257 3.14677 8.67278 0.861328 8.67278V4.53553H4.9991V0.396729H9.13841C9.13841 2.68266 10.9907 4.53553 13.2762 4.53553Z" fill="white"/>
<path d="M21.6855 10.6042V2.67116H26.8476V3.77732H22.8922V6.09021H26.7135V7.16285H22.8922V9.49808H26.937V10.6042H21.6855ZM29.6675 10.6042C29.2801 10.6042 28.9673 10.5037 28.7289 10.3026C28.4906 10.1014 28.3714 9.78114 28.3714 9.34166V2.67116H29.5558V9.22992C29.5558 9.364 29.5893 9.46456 29.6563 9.53161C29.7308 9.59865 29.8351 9.63217 29.9692 9.63217H30.4385V10.6042H29.6675ZM33.8954 10.7383C33.3293 10.7383 32.8339 10.6117 32.4093 10.3584C31.9847 10.1052 31.657 9.7439 31.4261 9.27462C31.1952 8.80534 31.0797 8.25784 31.0797 7.63213C31.0797 7.00642 31.1952 6.46265 31.4261 6.00082C31.657 5.53154 31.9847 5.17027 32.4093 4.91701C32.8339 4.65629 33.3293 4.52594 33.8954 4.52594C34.3796 4.52594 34.8079 4.6116 35.1803 4.78292C35.5602 4.9468 35.8656 5.18889 36.0965 5.50919C36.3349 5.8295 36.4876 6.22056 36.5546 6.6824L35.3144 6.74944C35.2548 6.36209 35.0984 6.06786 34.8451 5.86674C34.5919 5.65817 34.2753 5.55389 33.8954 5.55389C33.3963 5.55389 33.0052 5.74011 32.7222 6.11256C32.4466 6.47755 32.3088 6.98408 32.3088 7.63213C32.3088 8.28019 32.4466 8.79044 32.7222 9.16288C33.0052 9.52788 33.3963 9.71038 33.8954 9.71038C34.2753 9.71038 34.5919 9.60609 34.8451 9.39752C35.0984 9.18151 35.2548 8.85748 35.3144 8.42544L36.5546 8.49248C36.4876 8.94687 36.3349 9.34166 36.0965 9.67686C35.8656 10.0121 35.5602 10.2728 35.1803 10.459C34.8079 10.6452 34.3796 10.7383 33.8954 10.7383ZM39.4201 10.7383C38.8018 10.7383 38.3065 10.5968 37.934 10.3137C37.569 10.0307 37.3865 9.63217 37.3865 9.11819C37.3865 8.60422 37.5392 8.2057 37.8446 7.92264C38.1575 7.63213 38.638 7.42356 39.286 7.29693L41.3307 6.90586C41.3307 6.44403 41.2227 6.10138 41.0067 5.87791C40.7907 5.647 40.4704 5.53154 40.0458 5.53154C39.6659 5.53154 39.368 5.6172 39.1519 5.78853C38.9359 5.9524 38.7869 6.19822 38.705 6.52597L37.4871 6.44776C37.5988 5.85184 37.8744 5.38256 38.3139 5.03991C38.7609 4.69726 39.3382 4.52594 40.0458 4.52594C40.8503 4.52594 41.4611 4.74196 41.8782 5.17399C42.3028 5.59858 42.5151 6.19822 42.5151 6.9729V9.28579C42.5151 9.42732 42.5375 9.52788 42.5822 9.58747C42.6343 9.63961 42.7162 9.66569 42.828 9.66569H43.0403V10.6042C43.003 10.6117 42.9434 10.6191 42.8615 10.6266C42.7796 10.634 42.6939 10.6378 42.6045 10.6378C42.3512 10.6378 42.1315 10.5968 41.9453 10.5149C41.7665 10.4329 41.6324 10.2988 41.543 10.1126C41.4536 9.91895 41.409 9.66196 41.409 9.34166L41.5319 9.39752C41.4723 9.65824 41.3419 9.88915 41.1408 10.0903C40.9471 10.2914 40.6976 10.4515 40.3922 10.5707C40.0942 10.6825 39.7702 10.7383 39.4201 10.7383ZM39.61 9.79977C39.9676 9.79977 40.273 9.73273 40.5263 9.59865C40.7795 9.45712 40.9769 9.26344 41.1184 9.01763C41.26 8.77182 41.3307 8.49248 41.3307 8.17963V7.79973L39.5877 8.13493C39.2301 8.20197 38.9769 8.30998 38.8279 8.45896C38.6864 8.60049 38.6156 8.78299 38.6156 9.00646C38.6156 9.25972 38.7013 9.45712 38.8726 9.59865C39.0514 9.73273 39.2972 9.79977 39.61 9.79977ZM46.0141 10.6042C45.448 10.6042 45.0309 10.4739 44.7627 10.2132C44.4945 9.95247 44.3605 9.5465 44.3605 8.99528V3.26335H45.5448V8.9059C45.5448 9.18151 45.6044 9.37145 45.7236 9.47574C45.8428 9.58002 46.0253 9.63217 46.2711 9.63217H47.1203V10.6042H46.0141ZM43.4554 5.6321V4.66002H47.1203V5.6321H43.4554ZM50.6009 10.7383C50.0348 10.7383 49.5394 10.6117 49.1148 10.3584C48.6902 10.1052 48.3625 9.7439 48.1316 9.27462C47.9006 8.80534 47.7852 8.25784 47.7852 7.63213C47.7852 6.99898 47.9006 6.45148 48.1316 5.98965C48.3625 5.52782 48.6902 5.17027 49.1148 4.91701C49.5394 4.65629 50.0348 4.52594 50.6009 4.52594C51.167 4.52594 51.6623 4.65629 52.0869 4.91701C52.5115 5.17027 52.8393 5.52782 53.0702 5.98965C53.3011 6.45148 53.4166 6.99898 53.4166 7.63213C53.4166 8.25784 53.3011 8.80534 53.0702 9.27462C52.8393 9.7439 52.5115 10.1052 52.0869 10.3584C51.6623 10.6117 51.167 10.7383 50.6009 10.7383ZM50.6009 9.71038C51.1074 9.71038 51.4985 9.52788 51.7741 9.16288C52.0497 8.79044 52.1875 8.28019 52.1875 7.63213C52.1875 6.98408 52.0497 6.47755 51.7741 6.11256C51.4985 5.74011 51.1074 5.55389 50.6009 5.55389C50.1018 5.55389 49.7107 5.74011 49.4277 6.11256C49.1521 6.47755 49.0143 6.98408 49.0143 7.63213C49.0143 8.28019 49.1521 8.79044 49.4277 9.16288C49.7107 9.52788 50.1018 9.71038 50.6009 9.71038Z" fill="white"/>
</svg>
