<svg width="14" height="13" viewBox="0 0 14 13" fill="none" xmlns="http://www.w3.org/2000/svg">
<path d="M11.9628 1.01733V3.5003M13.2043 2.25882H10.7213M6.99684 1.01733C6.256 1.75817 5.8398 2.76297 5.8398 3.81068C5.8398 4.85838 6.256 5.86318 6.99684 6.60402C7.73768 7.34486 8.74248 7.76106 9.79018 7.76106C10.8379 7.76106 11.8427 7.34486 12.5835 6.60402C12.5835 7.70896 12.2559 8.78909 11.642 9.70781C11.0281 10.6265 10.1556 11.3426 9.13477 11.7654C8.11394 12.1883 6.99064 12.2989 5.90693 12.0834C4.82322 11.8678 3.82777 11.3357 3.04646 10.5544C2.26515 9.77309 1.73307 8.77763 1.51751 7.69392C1.30194 6.61021 1.41258 5.48692 1.83542 4.46609C2.25826 3.44525 2.97432 2.57273 3.89305 1.95886C4.81177 1.34499 5.8919 1.01733 6.99684 1.01733Z" stroke="#FAFAFA" stroke-width="1.24148" stroke-linecap="round" stroke-linejoin="round"/>
</svg>
