<svg width="12" height="13" viewBox="0 0 12 13" fill="none" xmlns="http://www.w3.org/2000/svg">
<g clip-path="url(#clip0_9488_782)">
<path d="M5.71353 1.79198C5.80895 1.56256 6.13394 1.56256 6.22936 1.79198L7.38362 4.56715C7.42385 4.66387 7.5148 4.72995 7.61921 4.73832L10.6152 4.97851C10.8629 4.99836 10.9633 5.30745 10.7746 5.46909L8.49199 7.42443C8.41244 7.49258 8.37769 7.5995 8.402 7.70139L9.09939 10.625C9.15704 10.8667 8.89412 11.0577 8.68207 10.9282L6.11705 9.3615C6.02766 9.3069 5.91524 9.3069 5.82584 9.3615L3.26082 10.9282C3.04878 11.0577 2.78586 10.8667 2.84351 10.625L3.5409 7.70139C3.5652 7.5995 3.53046 7.49258 3.45091 7.42443L1.16825 5.46909C0.979548 5.30745 1.07998 4.99836 1.32765 4.97851L4.32368 4.73832C4.42809 4.72995 4.51905 4.66386 4.55927 4.56715L5.71353 1.79198Z" fill="#EBEBEB"/>
</g>
<defs>
<clipPath id="clip0_9488_782">
<rect width="11.1734" height="11.1734" fill="white" transform="translate(0.384766 0.892578)"/>
</clipPath>
</defs>
</svg>
